<svg width="772" height="506" viewBox="0 0 772 506" fill="none" xmlns="http://www.w3.org/2000/svg">
<g filter="url(#filter0_f)">
<ellipse cx="356.804" cy="439.304" rx="182.5" ry="22" fill="#CDCDCD"/>
</g>
<mask id="mask0" style="mask-type:alpha" maskUnits="userSpaceOnUse" x="449" y="268" width="66" height="48">
<path d="M473.046 269.203C489.486 274.057 507.029 301.549 514.518 315.158C496.977 313.92 464.208 308.869 454.555 297.53C441.732 282.468 452.496 263.135 473.046 269.203Z" fill="#849A72"/>
</mask>
<g mask="url(#mask0)">
<path d="M473.046 269.203C489.486 274.057 507.029 301.549 514.518 315.158C496.977 313.92 464.208 308.869 454.555 297.53C441.732 282.468 452.496 263.135 473.046 269.203Z" fill="#849A72"/>
<path d="M514.493 315.152C499.775 307.891 466.393 290.137 450.602 277.203" stroke="#145855" stroke-width="0.8" stroke-linecap="round" stroke-linejoin="round"/>
<path d="M469.205 268.592L472.898 292.1L458.431 300.452" stroke="#145855" stroke-width="0.8" stroke-linecap="round" stroke-linejoin="round"/>
<path d="M484.255 276.165L487.974 300.971L477.406 308.503" stroke="#145855" stroke-width="0.8" stroke-linecap="round" stroke-linejoin="round"/>
<path d="M498.905 291.57L501.471 308.354L494.49 312.385" stroke="#145855" stroke-width="0.8" stroke-linecap="round" stroke-linejoin="round"/>
</g>
<mask id="mask1" style="mask-type:alpha" maskUnits="userSpaceOnUse" x="469" y="174" width="91" height="111">
<path d="M517.897 192.734C535.563 210.153 542.394 252.283 543.601 271.171C523.465 258.75 493.687 246.59 482.099 217.981C471.533 191.896 495.815 170.961 517.897 192.734Z" fill="#849A72"/>
</mask>
<g mask="url(#mask1)">
<path d="M517.897 192.734C535.563 210.153 542.394 252.283 543.601 271.171C523.465 258.75 493.687 246.59 482.099 217.981C471.533 191.896 495.815 170.961 517.897 192.734Z" fill="#849A72"/>
<path d="M543.03 270.533C528.063 246.534 502.39 203.731 489.233 186.934" stroke="#145855" stroke-width="0.8" stroke-linecap="round" stroke-linejoin="round"/>
<path d="M530.786 213.858L521.704 236.088L500.075 242.914" stroke="#145855" stroke-width="0.8" stroke-linecap="round" stroke-linejoin="round"/>
<path d="M516.683 192.105L507.826 213.664L482.509 217.068" stroke="#145855" stroke-width="0.8" stroke-linecap="round" stroke-linejoin="round"/>
<path d="M538.422 239.505L533.143 254.395L520.936 257.927" stroke="#145855" stroke-width="0.8" stroke-linecap="round" stroke-linejoin="round"/>
</g>
<mask id="mask2" style="mask-type:alpha" maskUnits="userSpaceOnUse" x="549" y="142" width="47" height="102">
<path d="M595.868 169.289C595.051 195.879 578.248 230.143 569.949 243.951C560.2 224.912 543.118 181.647 552.779 160.897C564.854 134.958 596.889 136.052 595.868 169.289Z" fill="#849A72"/>
</mask>
<g mask="url(#mask2)">
<path d="M595.868 169.289C595.051 195.879 578.248 230.143 569.949 243.951C560.2 224.912 543.118 181.647 552.779 160.897C564.854 134.958 596.889 136.052 595.868 169.289Z" fill="#849A72"/>
<path d="M570.01 244.68C570.48 217.735 572.89 159.013 578.765 139.686" stroke="#145855" stroke-width="0.8" stroke-linecap="round" stroke-linejoin="round"/>
<path d="M555.073 209.883L570.824 221.004L585.985 212.25" stroke="#145855" stroke-width="0.8" stroke-linecap="round" stroke-linejoin="round"/>
<path d="M549.81 184.622L571.901 200.22L596.671 185.919" stroke="#145855" stroke-width="0.8" stroke-linecap="round" stroke-linejoin="round"/>
<path d="M553.469 154.862L573.739 173.55L598.834 159.062" stroke="#145855" stroke-width="0.8" stroke-linecap="round" stroke-linejoin="round"/>
</g>
<mask id="mask3" style="mask-type:alpha" maskUnits="userSpaceOnUse" x="610" y="141" width="108" height="74">
<path d="M682.914 142.975C651.313 149.789 621.178 193.32 610.061 214.234C629.26 214.85 673.684 211.669 697.789 194.025C727.919 171.97 722.414 134.458 682.914 142.975Z" fill="#849A72"/>
</mask>
<g mask="url(#mask3)">
<path d="M682.914 142.975C651.313 149.789 621.178 193.32 610.061 214.234C629.26 214.85 673.684 211.669 697.789 194.025C727.919 171.97 722.414 134.458 682.914 142.975Z" fill="#849A72"/>
<path d="M717.435 151.263C688.487 162.315 618.72 206.709 607.768 216.45" stroke="#145855" stroke-width="0.8" stroke-linecap="round" stroke-linejoin="round"/>
<path d="M629.773 179.709L631.431 199.87L649.393 213.69" stroke="#145855" stroke-width="0.8" stroke-linecap="round" stroke-linejoin="round"/>
<path d="M650.806 159.58L653.784 185.795L681.679 204.093" stroke="#145855" stroke-width="0.8" stroke-linecap="round" stroke-linejoin="round"/>
<path d="M675.137 141.658L676.809 171.763L707.404 187.265" stroke="#145855" stroke-width="0.8" stroke-linecap="round" stroke-linejoin="round"/>
</g>
<mask id="mask4" style="mask-type:alpha" maskUnits="userSpaceOnUse" x="589" y="224" width="95" height="52">
<path d="M666.475 233.654C643.918 220.333 605.466 224.813 589.06 228.718C599.14 241.559 625.996 268.738 652.786 274.723C686.273 282.205 694.671 250.306 666.475 233.654Z" fill="#849A72"/>
</mask>
<g mask="url(#mask4)">
<path d="M666.475 233.654C643.918 220.333 605.466 224.813 589.06 228.718C599.14 241.559 625.996 268.738 652.786 274.723C686.273 282.205 694.671 250.306 666.475 233.654Z" fill="#849A72"/>
<path d="M588.499 227.928C611.565 237.287 662.969 257.949 685.466 263.284" stroke="#145855" stroke-width="0.8" stroke-linecap="round" stroke-linejoin="round"/>
<path d="M623.45 222.44L608.218 235.47L612.741 254.951" stroke="#145855" stroke-width="0.8" stroke-linecap="round" stroke-linejoin="round"/>
<path d="M647.689 225.42L629.874 243.757L638.645 271.344" stroke="#145855" stroke-width="0.8" stroke-linecap="round" stroke-linejoin="round"/>
<path d="M672.088 234.367L655.357 253.42L664.603 277.144" stroke="#145855" stroke-width="0.8" stroke-linecap="round" stroke-linejoin="round"/>
</g>
<mask id="mask5" style="mask-type:alpha" maskUnits="userSpaceOnUse" x="554" y="260" width="84" height="74">
<path d="M623.782 285.678C602.583 268.417 568.48 261.61 554.079 260.363C559.657 276.885 577.193 313.619 602.713 328.386C634.613 346.844 650.281 307.255 623.782 285.678Z" fill="#849A72"/>
</mask>
<g mask="url(#mask5)">
<path d="M623.782 285.678C602.583 268.417 568.48 261.61 554.079 260.363C559.657 276.885 577.193 313.619 602.713 328.386C634.613 346.844 650.281 307.255 623.782 285.678Z" fill="#849A72"/>
<path d="M552.877 259.04C573.253 276.792 618.885 314.589 638.41 323.767" stroke="#145855" stroke-width="0.8" stroke-linecap="round" stroke-linejoin="round"/>
<path d="M589.005 265.279L570.45 273.892L570.6 297.215" stroke="#145855" stroke-width="0.8" stroke-linecap="round" stroke-linejoin="round"/>
<path d="M617.075 278.351L591.294 291.046L590.696 321.766" stroke="#145855" stroke-width="0.8" stroke-linecap="round" stroke-linejoin="round"/>
</g>
<mask id="mask6" style="mask-type:alpha" maskUnits="userSpaceOnUse" x="524" y="299" width="43" height="36">
<path d="M561.962 315.332C553.106 305.501 533.263 300.504 524.448 299.233C525.971 305.773 534.849 322.828 546.062 330.474C563.105 342.096 573.031 327.621 561.962 315.332Z" fill="#849A72"/>
</mask>
<g mask="url(#mask6)">
<path d="M561.962 315.332C553.106 305.501 533.263 300.504 524.448 299.233C525.971 305.773 534.849 322.828 546.062 330.474C563.105 342.096 573.031 327.621 561.962 315.332Z" fill="#849A72"/>
<path d="M523.397 298.474C530.974 305.984 550.232 323.13 566.651 331.639" stroke="#145855" stroke-width="0.8" stroke-linecap="round" stroke-linejoin="round"/>
<path d="M547.153 304.702L536.135 310.094L536.474 322.92" stroke="#145855" stroke-width="0.8" stroke-linecap="round" stroke-linejoin="round"/>
<path d="M560.357 312.456L548.409 319.355L548.545 333.269" stroke="#145855" stroke-width="0.8" stroke-linecap="round" stroke-linejoin="round"/>
</g>
<path d="M488.445 396.018C499.798 333.177 530.213 263.097 611.83 213.207" stroke="#849A72" stroke-width="1.5" stroke-linecap="round" stroke-linejoin="round"/>
<mask id="mask7" style="mask-type:alpha" maskUnits="userSpaceOnUse" x="421" y="383" width="65" height="35">
<path d="M445.478 385.65C465.31 392.633 480.552 408.072 485.806 415.721C477.045 417.549 461.269 418.999 440.044 413.527C413.513 406.688 416.597 375.481 445.478 385.65Z" fill="#849A72"/>
</mask>
<g mask="url(#mask7)">
<path d="M445.478 385.65C465.31 392.633 480.552 408.072 485.806 415.721C477.045 417.549 461.269 418.999 440.044 413.527C413.513 406.688 416.597 375.481 445.478 385.65Z" fill="#849A72"/>
<path d="M484.439 415.476C466.735 409.812 428.501 396.776 417.203 389.945" stroke="#145855" stroke-width="0.8" stroke-linecap="round" stroke-linejoin="round"/>
<path d="M434.334 380.966L440.812 400.323L425.838 408.968" stroke="#145855" stroke-width="0.8" stroke-linecap="round" stroke-linejoin="round"/>
<path d="M453.78 386.121L456.227 405.304L439.625 414.889" stroke="#145855" stroke-width="0.8" stroke-linecap="round" stroke-linejoin="round"/>
</g>
<mask id="mask8" style="mask-type:alpha" maskUnits="userSpaceOnUse" x="493" y="362" width="52" height="25">
<path d="M526.787 362.294C512.861 364.031 498.66 371.759 493.301 375.406C500.378 380.72 522.738 390.598 535.611 384.161C551.701 376.115 544.196 360.122 526.787 362.294Z" fill="#849A72"/>
</mask>
<g mask="url(#mask8)">
<path d="M526.787 362.294C512.861 364.031 498.66 371.759 493.301 375.406C500.378 380.72 522.738 390.598 535.611 384.161C551.701 376.115 544.196 360.122 526.787 362.294Z" fill="#849A72"/>
<path d="M492.586 374.823C504.423 374.73 531.772 374.238 546.478 373.01" stroke="#145855" stroke-width="0.8" stroke-linecap="round" stroke-linejoin="round"/>
<path d="M516.237 363.548L508.643 374.386L517.016 386.707" stroke="#145855" stroke-width="0.8" stroke-linecap="round" stroke-linejoin="round"/>
</g>
<mask id="mask9" style="mask-type:alpha" maskUnits="userSpaceOnUse" x="222" y="325" width="35" height="33">
<path d="M224.987 341.945C230.163 333.482 248.159 327.793 256.889 325.645C253.569 335.265 245.837 352.828 238.053 356.525C227.711 361.437 218.516 352.525 224.987 341.945Z" fill="#849A72"/>
</mask>
<g mask="url(#mask9)">
<path d="M224.987 341.945C230.163 333.482 248.159 327.793 256.889 325.645C253.569 335.265 245.837 352.828 238.053 356.525C227.711 361.437 218.516 352.525 224.987 341.945Z" fill="#849A72"/>
<path d="M256.881 325.658C250.618 332.798 235.692 348.8 226.097 355.69" stroke="#145855" stroke-width="0.8" stroke-linecap="round" stroke-linejoin="round"/>
<path d="M224.069 344.001L237.764 345.458L240.267 354.796" stroke="#145855" stroke-width="0.8" stroke-linecap="round" stroke-linejoin="round"/>
<path d="M230.558 336.722L244.982 338.359L247.609 345.395" stroke="#145855" stroke-width="0.8" stroke-linecap="round" stroke-linejoin="round"/>
<path d="M241.364 330.84L251.131 331.92L252.338 336.426" stroke="#145855" stroke-width="0.8" stroke-linecap="round" stroke-linejoin="round"/>
</g>
<mask id="mask10" style="mask-type:alpha" maskUnits="userSpaceOnUse" x="180" y="300" width="57" height="30">
<path d="M188.957 305.418C201.34 298.152 225.916 300.644 236.655 302.798C226.695 312.194 215.437 327.019 197.708 329.212C181.543 331.211 173.477 314.501 188.957 305.418Z" fill="#849A72"/>
</mask>
<g mask="url(#mask10)">
<path d="M188.957 305.418C201.34 298.152 225.916 300.644 236.655 302.798C226.695 312.194 215.437 327.019 197.708 329.212C181.543 331.211 173.477 314.501 188.957 305.418Z" fill="#849A72"/>
<path d="M236.213 303.021C220.555 307.794 192.782 315.734 181.421 320.573" stroke="#145855" stroke-width="0.8" stroke-linecap="round" stroke-linejoin="round"/>
<path d="M202.696 301.377L213.763 309.784L214.339 322.898" stroke="#145855" stroke-width="0.8" stroke-linecap="round" stroke-linejoin="round"/>
<path d="M188.423 306.003L199.149 314.183L197.259 328.846" stroke="#145855" stroke-width="0.8" stroke-linecap="round" stroke-linejoin="round"/>
<path d="M218.177 300.95L225.71 306.131L225.856 313.484" stroke="#145855" stroke-width="0.8" stroke-linecap="round" stroke-linejoin="round"/>
</g>
<mask id="mask11" style="mask-type:alpha" maskUnits="userSpaceOnUse" x="169" y="257" width="57" height="30">
<path d="M187.529 258.318C202.272 262.758 218.909 277.284 225.385 283.992C213.282 286.59 186.537 289.658 176.384 281.149C163.692 270.514 169.102 252.769 187.529 258.318Z" fill="#849A72"/>
</mask>
<g mask="url(#mask11)">
<path d="M187.529 258.318C202.272 262.758 218.909 277.284 225.385 283.992C213.282 286.59 186.537 289.658 176.384 281.149C163.692 270.514 169.102 252.769 187.529 258.318Z" fill="#849A72"/>
<path d="M225.801 284.066C210.809 279.767 178.343 269.625 168.419 263.445" stroke="#145855" stroke-width="0.8" stroke-linecap="round" stroke-linejoin="round"/>
<path d="M204.112 287.205L212.688 280.065L210.066 270.278" stroke="#145855" stroke-width="0.8" stroke-linecap="round" stroke-linejoin="round"/>
<path d="M189.202 286.363L201.231 276.35L196.947 260.36" stroke="#145855" stroke-width="0.8" stroke-linecap="round" stroke-linejoin="round"/>
<path d="M173.113 279.859L186.597 271.327L182.257 255.129" stroke="#145855" stroke-width="0.8" stroke-linecap="round" stroke-linejoin="round"/>
</g>
<mask id="mask12" style="mask-type:alpha" maskUnits="userSpaceOnUse" x="185" y="189" width="35" height="69">
<path d="M185.858 205.716C184.934 224.402 204.755 247.769 214.781 257.117C218.001 246.476 222.877 221.166 216.625 205.047C208.808 184.9 187.014 182.359 185.858 205.716Z" fill="#849A72"/>
</mask>
<g mask="url(#mask12)">
<path d="M185.858 205.716C184.934 224.402 204.755 247.769 214.781 257.117C218.001 246.476 222.877 221.166 216.625 205.047C208.808 184.9 187.014 182.359 185.858 205.716Z" fill="#849A72"/>
<path d="M195.662 187.659C197.504 205.497 211.872 251.148 215.676 258.73" stroke="#145855" stroke-width="0.8" stroke-linecap="round" stroke-linejoin="round"/>
<path d="M198.433 240.925L209.952 243.019L220.368 235.048" stroke="#145855" stroke-width="0.8" stroke-linecap="round" stroke-linejoin="round"/>
<path d="M190.331 226.153L205.432 228.414L219.839 215.561" stroke="#145855" stroke-width="0.8" stroke-linecap="round" stroke-linejoin="round"/>
<path d="M183.957 209.866L201.037 213.441L214.286 198.66" stroke="#145855" stroke-width="0.8" stroke-linecap="round" stroke-linejoin="round"/>
</g>
<mask id="mask13" style="mask-type:alpha" maskUnits="userSpaceOnUse" x="219" y="222" width="39" height="50">
<path d="M234.088 228.489C223.262 239.103 220.007 261.27 219.732 271.026C228.421 267.315 247.637 256.372 254.996 242.293C264.194 224.694 247.62 215.221 234.088 228.489Z" fill="#849A72"/>
</mask>
<g mask="url(#mask13)">
<path d="M234.088 228.489C223.262 239.103 220.007 261.27 219.732 271.026C228.421 267.315 247.637 256.372 254.996 242.293C264.194 224.694 247.62 215.221 234.088 228.489Z" fill="#849A72"/>
<path d="M219.206 271.221C227.893 259.729 247.144 234.087 253.496 222.31" stroke="#145855" stroke-width="0.8" stroke-linecap="round" stroke-linejoin="round"/>
<path d="M221.374 250.861L226.376 261.328L237.944 261.717" stroke="#145855" stroke-width="0.8" stroke-linecap="round" stroke-linejoin="round"/>
<path d="M226.67 237.757L234.253 250.463L250.988 249.692" stroke="#145855" stroke-width="0.8" stroke-linecap="round" stroke-linejoin="round"/>
<path d="M235.327 225.458L243.472 237.665L258.119 236.05" stroke="#145855" stroke-width="0.8" stroke-linecap="round" stroke-linejoin="round"/>
</g>
<mask id="mask14" style="mask-type:alpha" maskUnits="userSpaceOnUse" x="232" y="255" width="51" height="41">
<path d="M256.775 260.148C243.951 269.413 235.037 287.458 232.183 295.322C242.254 294.678 265.416 290.378 277.494 278.323C292.591 263.255 272.807 248.566 256.775 260.148Z" fill="#849A72"/>
</mask>
<g mask="url(#mask14)">
<path d="M256.775 260.148C243.951 269.413 235.037 287.458 232.183 295.322C242.254 294.678 265.416 290.378 277.494 278.323C292.591 263.255 272.807 248.566 256.775 260.148Z" fill="#849A72"/>
<path d="M231.263 295.795C244.239 287.064 272.204 267.216 280.259 257.676" stroke="#145855" stroke-width="0.8" stroke-linecap="round" stroke-linejoin="round"/>
<path d="M240.162 276.534L242.198 288.196L255.258 291.606" stroke="#145855" stroke-width="0.8" stroke-linecap="round" stroke-linejoin="round"/>
<path d="M251.675 262.8L254.91 279.113L271.993 284.049" stroke="#145855" stroke-width="0.8" stroke-linecap="round" stroke-linejoin="round"/>
</g>
<mask id="mask15" style="mask-type:alpha" maskUnits="userSpaceOnUse" x="249" y="297" width="26" height="21">
<path d="M264.093 299.149C257.27 302.627 251.504 312.971 249.474 317.708C253.358 317.836 264.222 315.428 270.175 310.305C279.225 302.518 272.621 294.802 264.093 299.149Z" fill="#849A72"/>
</mask>
<g mask="url(#mask15)">
<path d="M264.093 299.149C257.27 302.627 251.504 312.971 249.474 317.708C253.358 317.836 264.222 315.428 270.175 310.305C279.225 302.518 272.621 294.802 264.093 299.149Z" fill="#849A72"/>
<path d="M248.892 318.182C254.225 315.071 266.695 306.874 273.911 298.97" stroke="#145855" stroke-width="0.8" stroke-linecap="round" stroke-linejoin="round"/>
<path d="M255.932 305.835L257.296 312.802L264.517 314.533" stroke="#145855" stroke-width="0.8" stroke-linecap="round" stroke-linejoin="round"/>
<path d="M262.245 299.615L264.311 307.328L272.11 309.336" stroke="#145855" stroke-width="0.8" stroke-linecap="round" stroke-linejoin="round"/>
</g>
<path d="M298.186 352.332C264.757 336.573 230.137 309.073 214.472 255.974" stroke="#849A72" stroke-width="1.5" stroke-linecap="round" stroke-linejoin="round"/>
<mask id="mask16" style="mask-type:alpha" maskUnits="userSpaceOnUse" x="282" y="356" width="27" height="34">
<path d="M285.954 374.799C292.828 364.759 303.742 358.551 308.806 356.759C308.515 361.931 306.962 370.967 300.724 382.013C292.927 395.82 275.943 389.421 285.954 374.799Z" fill="#849A72"/>
</mask>
<g mask="url(#mask16)">
<path d="M285.954 374.799C292.828 364.759 303.742 358.551 308.806 356.759C308.515 361.931 306.962 370.967 300.724 382.013C292.927 395.82 275.943 389.421 285.954 374.799Z" fill="#849A72"/>
<path d="M308.464 357.486C302.645 366.535 289.631 385.956 284.12 391.249" stroke="#145855" stroke-width="0.8" stroke-linecap="round" stroke-linejoin="round"/>
<path d="M281.666 380.327L293.458 379.606L296.048 389.271" stroke="#145855" stroke-width="0.8" stroke-linecap="round" stroke-linejoin="round"/>
<path d="M287.461 370.228L298.551 371.734L301.423 382.451" stroke="#145855" stroke-width="0.8" stroke-linecap="round" stroke-linejoin="round"/>
</g>
<mask id="mask17" style="mask-type:alpha" maskUnits="userSpaceOnUse" x="284" y="317" width="15" height="30">
<path d="M285.077 325.847C283.962 333.892 286.155 342.988 287.391 346.531C291.422 343.37 300.293 332.35 298.623 324.19C296.535 313.989 286.47 315.789 285.077 325.847Z" fill="#849A72"/>
</mask>
<g mask="url(#mask17)">
<path d="M285.077 325.847C283.962 333.892 286.155 342.988 287.391 346.531C291.422 343.37 300.293 332.35 298.623 324.19C296.535 313.989 286.47 315.789 285.077 325.847Z" fill="#849A72"/>
<path d="M286.958 346.843C288.679 340.212 292.501 324.849 294.017 316.444" stroke="#145855" stroke-width="0.8" stroke-linecap="round" stroke-linejoin="round"/>
<path d="M284.197 331.933L289.118 337.801L297.26 334.966" stroke="#145855" stroke-width="0.8" stroke-linecap="round" stroke-linejoin="round"/>
</g>
<path opacity="0.1" d="M444.304 8.51411C445.961 8.51411 447.304 7.07064 447.304 5.29002C447.304 3.5094 445.961 2.06592 444.304 2.06592C442.647 2.06592 441.304 3.5094 441.304 5.29002C441.304 7.07064 442.647 8.51411 444.304 8.51411Z" fill="#3B4C68"/>
<path opacity="0.1" d="M470.304 8.51411C471.961 8.51411 473.304 7.07064 473.304 5.29002C473.304 3.5094 471.961 2.06592 470.304 2.06592C468.647 2.06592 467.304 3.5094 467.304 5.29002C467.304 7.07064 468.647 8.51411 470.304 8.51411Z" fill="#3B4C68"/>
<path opacity="0.1" d="M496.304 8.51411C497.961 8.51411 499.304 7.07064 499.304 5.29002C499.304 3.5094 497.961 2.06592 496.304 2.06592C494.647 2.06592 493.304 3.5094 493.304 5.29002C493.304 7.07064 494.647 8.51411 496.304 8.51411Z" fill="#3B4C68"/>
<path opacity="0.1" d="M522.304 8.51411C523.961 8.51411 525.304 7.07064 525.304 5.29002C525.304 3.5094 523.961 2.06592 522.304 2.06592C520.647 2.06592 519.304 3.5094 519.304 5.29002C519.304 7.07064 520.647 8.51411 522.304 8.51411Z" fill="#3B4C68"/>
<path opacity="0.1" d="M548.304 8.51411C549.961 8.51411 551.304 7.07064 551.304 5.29002C551.304 3.5094 549.961 2.06592 548.304 2.06592C546.647 2.06592 545.304 3.5094 545.304 5.29002C545.304 7.07064 546.647 8.51411 548.304 8.51411Z" fill="#3B4C68"/>
<path opacity="0.1" d="M574.304 8.51411C575.961 8.51411 577.304 7.07064 577.304 5.29002C577.304 3.5094 575.961 2.06592 574.304 2.06592C572.647 2.06592 571.304 3.5094 571.304 5.29002C571.304 7.07064 572.647 8.51411 574.304 8.51411Z" fill="#3B4C68"/>
<path opacity="0.1" d="M600.304 8.51411C601.961 8.51411 603.304 7.07064 603.304 5.29002C603.304 3.5094 601.961 2.06592 600.304 2.06592C598.647 2.06592 597.304 3.5094 597.304 5.29002C597.304 7.07064 598.647 8.51411 600.304 8.51411Z" fill="#3B4C68"/>
<path opacity="0.1" d="M626.304 8.51411C627.961 8.51411 629.304 7.07064 629.304 5.29002C629.304 3.5094 627.961 2.06592 626.304 2.06592C624.647 2.06592 623.304 3.5094 623.304 5.29002C623.304 7.07064 624.647 8.51411 626.304 8.51411Z" fill="#3B4C68"/>
<path opacity="0.1" d="M652.304 8.51411C653.961 8.51411 655.304 7.07064 655.304 5.29002C655.304 3.5094 653.961 2.06592 652.304 2.06592C650.647 2.06592 649.304 3.5094 649.304 5.29002C649.304 7.07064 650.647 8.51411 652.304 8.51411Z" fill="#3B4C68"/>
<path opacity="0.1" d="M678.304 8.51411C679.961 8.51411 681.304 7.07064 681.304 5.29002C681.304 3.5094 679.961 2.06592 678.304 2.06592C676.647 2.06592 675.304 3.5094 675.304 5.29002C675.304 7.07064 676.647 8.51411 678.304 8.51411Z" fill="#3B4C68"/>
<path opacity="0.1" d="M704.304 8.51411C705.961 8.51411 707.304 7.07064 707.304 5.29002C707.304 3.5094 705.961 2.06592 704.304 2.06592C702.647 2.06592 701.304 3.5094 701.304 5.29002C701.304 7.07064 702.647 8.51411 704.304 8.51411Z" fill="#3B4C68"/>
<path opacity="0.1" d="M730.304 8.51411C731.961 8.51411 733.304 7.07064 733.304 5.29002C733.304 3.5094 731.961 2.06592 730.304 2.06592C728.647 2.06592 727.304 3.5094 727.304 5.29002C727.304 7.07064 728.647 8.51411 730.304 8.51411Z" fill="#3B4C68"/>
<path opacity="0.1" d="M756.304 8.51411C757.961 8.51411 759.304 7.07064 759.304 5.29002C759.304 3.5094 757.961 2.06592 756.304 2.06592C754.647 2.06592 753.304 3.5094 753.304 5.29002C753.304 7.07064 754.647 8.51411 756.304 8.51411Z" fill="#3B4C68"/>
<path opacity="0.1" d="M444.304 36.4563C445.961 36.4563 447.304 35.0128 447.304 33.2322C447.304 31.4516 445.961 30.0081 444.304 30.0081C442.647 30.0081 441.304 31.4516 441.304 33.2322C441.304 35.0128 442.647 36.4563 444.304 36.4563Z" fill="#3B4C68"/>
<path opacity="0.1" d="M470.304 36.4563C471.961 36.4563 473.304 35.0128 473.304 33.2322C473.304 31.4516 471.961 30.0081 470.304 30.0081C468.647 30.0081 467.304 31.4516 467.304 33.2322C467.304 35.0128 468.647 36.4563 470.304 36.4563Z" fill="#3B4C68"/>
<path opacity="0.1" d="M496.304 36.4563C497.961 36.4563 499.304 35.0128 499.304 33.2322C499.304 31.4516 497.961 30.0081 496.304 30.0081C494.647 30.0081 493.304 31.4516 493.304 33.2322C493.304 35.0128 494.647 36.4563 496.304 36.4563Z" fill="#3B4C68"/>
<path opacity="0.1" d="M522.304 36.4563C523.961 36.4563 525.304 35.0128 525.304 33.2322C525.304 31.4516 523.961 30.0081 522.304 30.0081C520.647 30.0081 519.304 31.4516 519.304 33.2322C519.304 35.0128 520.647 36.4563 522.304 36.4563Z" fill="#3B4C68"/>
<path opacity="0.1" d="M548.304 36.4563C549.961 36.4563 551.304 35.0128 551.304 33.2322C551.304 31.4516 549.961 30.0081 548.304 30.0081C546.647 30.0081 545.304 31.4516 545.304 33.2322C545.304 35.0128 546.647 36.4563 548.304 36.4563Z" fill="#3B4C68"/>
<path opacity="0.1" d="M574.304 36.4563C575.961 36.4563 577.304 35.0128 577.304 33.2322C577.304 31.4516 575.961 30.0081 574.304 30.0081C572.647 30.0081 571.304 31.4516 571.304 33.2322C571.304 35.0128 572.647 36.4563 574.304 36.4563Z" fill="#3B4C68"/>
<path opacity="0.1" d="M600.304 36.4563C601.961 36.4563 603.304 35.0128 603.304 33.2322C603.304 31.4516 601.961 30.0081 600.304 30.0081C598.647 30.0081 597.304 31.4516 597.304 33.2322C597.304 35.0128 598.647 36.4563 600.304 36.4563Z" fill="#3B4C68"/>
<path opacity="0.1" d="M626.304 36.4563C627.961 36.4563 629.304 35.0128 629.304 33.2322C629.304 31.4516 627.961 30.0081 626.304 30.0081C624.647 30.0081 623.304 31.4516 623.304 33.2322C623.304 35.0128 624.647 36.4563 626.304 36.4563Z" fill="#3B4C68"/>
<path opacity="0.1" d="M652.304 36.4563C653.961 36.4563 655.304 35.0128 655.304 33.2322C655.304 31.4516 653.961 30.0081 652.304 30.0081C650.647 30.0081 649.304 31.4516 649.304 33.2322C649.304 35.0128 650.647 36.4563 652.304 36.4563Z" fill="#3B4C68"/>
<path opacity="0.1" d="M678.304 36.4563C679.961 36.4563 681.304 35.0128 681.304 33.2322C681.304 31.4516 679.961 30.0081 678.304 30.0081C676.647 30.0081 675.304 31.4516 675.304 33.2322C675.304 35.0128 676.647 36.4563 678.304 36.4563Z" fill="#3B4C68"/>
<path opacity="0.1" d="M704.304 36.4563C705.961 36.4563 707.304 35.0128 707.304 33.2322C707.304 31.4516 705.961 30.0081 704.304 30.0081C702.647 30.0081 701.304 31.4516 701.304 33.2322C701.304 35.0128 702.647 36.4563 704.304 36.4563Z" fill="#3B4C68"/>
<path opacity="0.1" d="M730.304 36.4563C731.961 36.4563 733.304 35.0128 733.304 33.2322C733.304 31.4516 731.961 30.0081 730.304 30.0081C728.647 30.0081 727.304 31.4516 727.304 33.2322C727.304 35.0128 728.647 36.4563 730.304 36.4563Z" fill="#3B4C68"/>
<path opacity="0.1" d="M756.304 36.4563C757.961 36.4563 759.304 35.0128 759.304 33.2322C759.304 31.4516 757.961 30.0081 756.304 30.0081C754.647 30.0081 753.304 31.4516 753.304 33.2322C753.304 35.0128 754.647 36.4563 756.304 36.4563Z" fill="#3B4C68"/>
<path opacity="0.1" d="M444.304 64.3985C445.961 64.3985 447.304 62.955 447.304 61.1744C447.304 59.3938 445.961 57.9503 444.304 57.9503C442.647 57.9503 441.304 59.3938 441.304 61.1744C441.304 62.955 442.647 64.3985 444.304 64.3985Z" fill="#3B4C68"/>
<path opacity="0.1" d="M470.304 64.3985C471.961 64.3985 473.304 62.955 473.304 61.1744C473.304 59.3938 471.961 57.9503 470.304 57.9503C468.647 57.9503 467.304 59.3938 467.304 61.1744C467.304 62.955 468.647 64.3985 470.304 64.3985Z" fill="#3B4C68"/>
<path opacity="0.1" d="M496.304 64.3985C497.961 64.3985 499.304 62.955 499.304 61.1744C499.304 59.3938 497.961 57.9503 496.304 57.9503C494.647 57.9503 493.304 59.3938 493.304 61.1744C493.304 62.955 494.647 64.3985 496.304 64.3985Z" fill="#3B4C68"/>
<path opacity="0.1" d="M522.304 64.3985C523.961 64.3985 525.304 62.955 525.304 61.1744C525.304 59.3938 523.961 57.9503 522.304 57.9503C520.647 57.9503 519.304 59.3938 519.304 61.1744C519.304 62.955 520.647 64.3985 522.304 64.3985Z" fill="#3B4C68"/>
<path opacity="0.1" d="M548.304 64.3985C549.961 64.3985 551.304 62.955 551.304 61.1744C551.304 59.3938 549.961 57.9503 548.304 57.9503C546.647 57.9503 545.304 59.3938 545.304 61.1744C545.304 62.955 546.647 64.3985 548.304 64.3985Z" fill="#3B4C68"/>
<path opacity="0.1" d="M574.304 64.3985C575.961 64.3985 577.304 62.955 577.304 61.1744C577.304 59.3938 575.961 57.9503 574.304 57.9503C572.647 57.9503 571.304 59.3938 571.304 61.1744C571.304 62.955 572.647 64.3985 574.304 64.3985Z" fill="#3B4C68"/>
<path opacity="0.1" d="M600.304 64.3985C601.961 64.3985 603.304 62.955 603.304 61.1744C603.304 59.3938 601.961 57.9503 600.304 57.9503C598.647 57.9503 597.304 59.3938 597.304 61.1744C597.304 62.955 598.647 64.3985 600.304 64.3985Z" fill="#3B4C68"/>
<path opacity="0.1" d="M626.304 64.3985C627.961 64.3985 629.304 62.955 629.304 61.1744C629.304 59.3938 627.961 57.9503 626.304 57.9503C624.647 57.9503 623.304 59.3938 623.304 61.1744C623.304 62.955 624.647 64.3985 626.304 64.3985Z" fill="#3B4C68"/>
<path opacity="0.1" d="M652.304 64.3985C653.961 64.3985 655.304 62.955 655.304 61.1744C655.304 59.3938 653.961 57.9503 652.304 57.9503C650.647 57.9503 649.304 59.3938 649.304 61.1744C649.304 62.955 650.647 64.3985 652.304 64.3985Z" fill="#3B4C68"/>
<path opacity="0.1" d="M678.304 64.3985C679.961 64.3985 681.304 62.955 681.304 61.1744C681.304 59.3938 679.961 57.9503 678.304 57.9503C676.647 57.9503 675.304 59.3938 675.304 61.1744C675.304 62.955 676.647 64.3985 678.304 64.3985Z" fill="#3B4C68"/>
<path opacity="0.1" d="M704.304 64.3985C705.961 64.3985 707.304 62.955 707.304 61.1744C707.304 59.3938 705.961 57.9503 704.304 57.9503C702.647 57.9503 701.304 59.3938 701.304 61.1744C701.304 62.955 702.647 64.3985 704.304 64.3985Z" fill="#3B4C68"/>
<path opacity="0.1" d="M730.304 64.3985C731.961 64.3985 733.304 62.955 733.304 61.1744C733.304 59.3938 731.961 57.9503 730.304 57.9503C728.647 57.9503 727.304 59.3938 727.304 61.1744C727.304 62.955 728.647 64.3985 730.304 64.3985Z" fill="#3B4C68"/>
<path opacity="0.1" d="M756.304 64.3985C757.961 64.3985 759.304 62.955 759.304 61.1744C759.304 59.3938 757.961 57.9503 756.304 57.9503C754.647 57.9503 753.304 59.3938 753.304 61.1744C753.304 62.955 754.647 64.3985 756.304 64.3985Z" fill="#3B4C68"/>
<path opacity="0.1" d="M444.304 92.3407C445.961 92.3407 447.304 90.8972 447.304 89.1166C447.304 87.336 445.961 85.8925 444.304 85.8925C442.647 85.8925 441.304 87.336 441.304 89.1166C441.304 90.8972 442.647 92.3407 444.304 92.3407Z" fill="#3B4C68"/>
<path opacity="0.1" d="M470.304 92.3407C471.961 92.3407 473.304 90.8972 473.304 89.1166C473.304 87.336 471.961 85.8925 470.304 85.8925C468.647 85.8925 467.304 87.336 467.304 89.1166C467.304 90.8972 468.647 92.3407 470.304 92.3407Z" fill="#3B4C68"/>
<path opacity="0.1" d="M496.304 92.3407C497.961 92.3407 499.304 90.8972 499.304 89.1166C499.304 87.336 497.961 85.8925 496.304 85.8925C494.647 85.8925 493.304 87.336 493.304 89.1166C493.304 90.8972 494.647 92.3407 496.304 92.3407Z" fill="#3B4C68"/>
<path opacity="0.1" d="M522.304 92.3407C523.961 92.3407 525.304 90.8972 525.304 89.1166C525.304 87.336 523.961 85.8925 522.304 85.8925C520.647 85.8925 519.304 87.336 519.304 89.1166C519.304 90.8972 520.647 92.3407 522.304 92.3407Z" fill="#3B4C68"/>
<path opacity="0.1" d="M548.304 92.3407C549.961 92.3407 551.304 90.8972 551.304 89.1166C551.304 87.336 549.961 85.8925 548.304 85.8925C546.647 85.8925 545.304 87.336 545.304 89.1166C545.304 90.8972 546.647 92.3407 548.304 92.3407Z" fill="#3B4C68"/>
<path opacity="0.1" d="M574.304 92.3407C575.961 92.3407 577.304 90.8972 577.304 89.1166C577.304 87.336 575.961 85.8925 574.304 85.8925C572.647 85.8925 571.304 87.336 571.304 89.1166C571.304 90.8972 572.647 92.3407 574.304 92.3407Z" fill="#3B4C68"/>
<path opacity="0.1" d="M600.304 92.3407C601.961 92.3407 603.304 90.8972 603.304 89.1166C603.304 87.336 601.961 85.8925 600.304 85.8925C598.647 85.8925 597.304 87.336 597.304 89.1166C597.304 90.8972 598.647 92.3407 600.304 92.3407Z" fill="#3B4C68"/>
<path opacity="0.1" d="M626.304 92.3407C627.961 92.3407 629.304 90.8972 629.304 89.1166C629.304 87.336 627.961 85.8925 626.304 85.8925C624.647 85.8925 623.304 87.336 623.304 89.1166C623.304 90.8972 624.647 92.3407 626.304 92.3407Z" fill="#3B4C68"/>
<path opacity="0.1" d="M652.304 92.3407C653.961 92.3407 655.304 90.8972 655.304 89.1166C655.304 87.336 653.961 85.8925 652.304 85.8925C650.647 85.8925 649.304 87.336 649.304 89.1166C649.304 90.8972 650.647 92.3407 652.304 92.3407Z" fill="#3B4C68"/>
<path opacity="0.1" d="M678.304 92.3407C679.961 92.3407 681.304 90.8972 681.304 89.1166C681.304 87.336 679.961 85.8925 678.304 85.8925C676.647 85.8925 675.304 87.336 675.304 89.1166C675.304 90.8972 676.647 92.3407 678.304 92.3407Z" fill="#3B4C68"/>
<path opacity="0.1" d="M704.304 92.3407C705.961 92.3407 707.304 90.8972 707.304 89.1166C707.304 87.336 705.961 85.8925 704.304 85.8925C702.647 85.8925 701.304 87.336 701.304 89.1166C701.304 90.8972 702.647 92.3407 704.304 92.3407Z" fill="#3B4C68"/>
<path opacity="0.1" d="M730.304 92.3407C731.961 92.3407 733.304 90.8972 733.304 89.1166C733.304 87.336 731.961 85.8925 730.304 85.8925C728.647 85.8925 727.304 87.336 727.304 89.1166C727.304 90.8972 728.647 92.3407 730.304 92.3407Z" fill="#3B4C68"/>
<path opacity="0.1" d="M756.304 92.3407C757.961 92.3407 759.304 90.8972 759.304 89.1166C759.304 87.336 757.961 85.8925 756.304 85.8925C754.647 85.8925 753.304 87.336 753.304 89.1166C753.304 90.8972 754.647 92.3407 756.304 92.3407Z" fill="#3B4C68"/>
<path opacity="0.1" d="M444.304 120.283C445.961 120.283 447.304 118.839 447.304 117.059C447.304 115.278 445.961 113.835 444.304 113.835C442.647 113.835 441.304 115.278 441.304 117.059C441.304 118.839 442.647 120.283 444.304 120.283Z" fill="#3B4C68"/>
<path opacity="0.1" d="M470.304 120.283C471.961 120.283 473.304 118.839 473.304 117.059C473.304 115.278 471.961 113.835 470.304 113.835C468.647 113.835 467.304 115.278 467.304 117.059C467.304 118.839 468.647 120.283 470.304 120.283Z" fill="#3B4C68"/>
<path opacity="0.1" d="M496.304 120.283C497.961 120.283 499.304 118.839 499.304 117.059C499.304 115.278 497.961 113.835 496.304 113.835C494.647 113.835 493.304 115.278 493.304 117.059C493.304 118.839 494.647 120.283 496.304 120.283Z" fill="#3B4C68"/>
<path opacity="0.1" d="M522.304 120.283C523.961 120.283 525.304 118.839 525.304 117.059C525.304 115.278 523.961 113.835 522.304 113.835C520.647 113.835 519.304 115.278 519.304 117.059C519.304 118.839 520.647 120.283 522.304 120.283Z" fill="#3B4C68"/>
<path opacity="0.1" d="M548.304 120.283C549.961 120.283 551.304 118.839 551.304 117.059C551.304 115.278 549.961 113.835 548.304 113.835C546.647 113.835 545.304 115.278 545.304 117.059C545.304 118.839 546.647 120.283 548.304 120.283Z" fill="#3B4C68"/>
<path opacity="0.1" d="M574.304 120.283C575.961 120.283 577.304 118.839 577.304 117.059C577.304 115.278 575.961 113.835 574.304 113.835C572.647 113.835 571.304 115.278 571.304 117.059C571.304 118.839 572.647 120.283 574.304 120.283Z" fill="#3B4C68"/>
<path opacity="0.1" d="M600.304 120.283C601.961 120.283 603.304 118.839 603.304 117.059C603.304 115.278 601.961 113.835 600.304 113.835C598.647 113.835 597.304 115.278 597.304 117.059C597.304 118.839 598.647 120.283 600.304 120.283Z" fill="#3B4C68"/>
<path opacity="0.1" d="M626.304 120.283C627.961 120.283 629.304 118.839 629.304 117.059C629.304 115.278 627.961 113.835 626.304 113.835C624.647 113.835 623.304 115.278 623.304 117.059C623.304 118.839 624.647 120.283 626.304 120.283Z" fill="#3B4C68"/>
<path opacity="0.1" d="M652.304 120.283C653.961 120.283 655.304 118.839 655.304 117.059C655.304 115.278 653.961 113.835 652.304 113.835C650.647 113.835 649.304 115.278 649.304 117.059C649.304 118.839 650.647 120.283 652.304 120.283Z" fill="#3B4C68"/>
<path opacity="0.1" d="M678.304 120.283C679.961 120.283 681.304 118.839 681.304 117.059C681.304 115.278 679.961 113.835 678.304 113.835C676.647 113.835 675.304 115.278 675.304 117.059C675.304 118.839 676.647 120.283 678.304 120.283Z" fill="#3B4C68"/>
<path opacity="0.1" d="M704.304 120.283C705.961 120.283 707.304 118.839 707.304 117.059C707.304 115.278 705.961 113.835 704.304 113.835C702.647 113.835 701.304 115.278 701.304 117.059C701.304 118.839 702.647 120.283 704.304 120.283Z" fill="#3B4C68"/>
<path opacity="0.1" d="M730.304 120.283C731.961 120.283 733.304 118.839 733.304 117.059C733.304 115.278 731.961 113.835 730.304 113.835C728.647 113.835 727.304 115.278 727.304 117.059C727.304 118.839 728.647 120.283 730.304 120.283Z" fill="#3B4C68"/>
<path opacity="0.1" d="M756.304 120.283C757.961 120.283 759.304 118.839 759.304 117.059C759.304 115.278 757.961 113.835 756.304 113.835C754.647 113.835 753.304 115.278 753.304 117.059C753.304 118.839 754.647 120.283 756.304 120.283Z" fill="#3B4C68"/>
<path opacity="0.1" d="M444.304 148.225C445.961 148.225 447.304 146.782 447.304 145.001C447.304 143.22 445.961 141.777 444.304 141.777C442.647 141.777 441.304 143.22 441.304 145.001C441.304 146.782 442.647 148.225 444.304 148.225Z" fill="#3B4C68"/>
<path opacity="0.1" d="M470.304 148.225C471.961 148.225 473.304 146.782 473.304 145.001C473.304 143.22 471.961 141.777 470.304 141.777C468.647 141.777 467.304 143.22 467.304 145.001C467.304 146.782 468.647 148.225 470.304 148.225Z" fill="#3B4C68"/>
<path opacity="0.1" d="M496.304 148.225C497.961 148.225 499.304 146.782 499.304 145.001C499.304 143.22 497.961 141.777 496.304 141.777C494.647 141.777 493.304 143.22 493.304 145.001C493.304 146.782 494.647 148.225 496.304 148.225Z" fill="#3B4C68"/>
<path opacity="0.1" d="M522.304 148.225C523.961 148.225 525.304 146.782 525.304 145.001C525.304 143.22 523.961 141.777 522.304 141.777C520.647 141.777 519.304 143.22 519.304 145.001C519.304 146.782 520.647 148.225 522.304 148.225Z" fill="#3B4C68"/>
<path opacity="0.1" d="M548.304 148.225C549.961 148.225 551.304 146.782 551.304 145.001C551.304 143.22 549.961 141.777 548.304 141.777C546.647 141.777 545.304 143.22 545.304 145.001C545.304 146.782 546.647 148.225 548.304 148.225Z" fill="#3B4C68"/>
<path opacity="0.1" d="M574.304 148.225C575.961 148.225 577.304 146.782 577.304 145.001C577.304 143.22 575.961 141.777 574.304 141.777C572.647 141.777 571.304 143.22 571.304 145.001C571.304 146.782 572.647 148.225 574.304 148.225Z" fill="#3B4C68"/>
<path opacity="0.1" d="M600.304 148.225C601.961 148.225 603.304 146.782 603.304 145.001C603.304 143.22 601.961 141.777 600.304 141.777C598.647 141.777 597.304 143.22 597.304 145.001C597.304 146.782 598.647 148.225 600.304 148.225Z" fill="#3B4C68"/>
<path opacity="0.1" d="M626.304 148.225C627.961 148.225 629.304 146.782 629.304 145.001C629.304 143.22 627.961 141.777 626.304 141.777C624.647 141.777 623.304 143.22 623.304 145.001C623.304 146.782 624.647 148.225 626.304 148.225Z" fill="#3B4C68"/>
<path opacity="0.1" d="M652.304 148.225C653.961 148.225 655.304 146.782 655.304 145.001C655.304 143.22 653.961 141.777 652.304 141.777C650.647 141.777 649.304 143.22 649.304 145.001C649.304 146.782 650.647 148.225 652.304 148.225Z" fill="#3B4C68"/>
<path opacity="0.1" d="M678.304 148.225C679.961 148.225 681.304 146.782 681.304 145.001C681.304 143.22 679.961 141.777 678.304 141.777C676.647 141.777 675.304 143.22 675.304 145.001C675.304 146.782 676.647 148.225 678.304 148.225Z" fill="#3B4C68"/>
<path opacity="0.1" d="M704.304 148.225C705.961 148.225 707.304 146.782 707.304 145.001C707.304 143.22 705.961 141.777 704.304 141.777C702.647 141.777 701.304 143.22 701.304 145.001C701.304 146.782 702.647 148.225 704.304 148.225Z" fill="#3B4C68"/>
<path opacity="0.1" d="M730.304 148.225C731.961 148.225 733.304 146.782 733.304 145.001C733.304 143.22 731.961 141.777 730.304 141.777C728.647 141.777 727.304 143.22 727.304 145.001C727.304 146.782 728.647 148.225 730.304 148.225Z" fill="#3B4C68"/>
<path opacity="0.1" d="M756.304 148.225C757.961 148.225 759.304 146.782 759.304 145.001C759.304 143.22 757.961 141.777 756.304 141.777C754.647 141.777 753.304 143.22 753.304 145.001C753.304 146.782 754.647 148.225 756.304 148.225Z" fill="#3B4C68"/>
<path opacity="0.1" d="M444.304 176.167C445.961 176.167 447.304 174.724 447.304 172.943C447.304 171.163 445.961 169.719 444.304 169.719C442.647 169.719 441.304 171.163 441.304 172.943C441.304 174.724 442.647 176.167 444.304 176.167Z" fill="#3B4C68"/>
<path opacity="0.1" d="M470.304 176.167C471.961 176.167 473.304 174.724 473.304 172.943C473.304 171.163 471.961 169.719 470.304 169.719C468.647 169.719 467.304 171.163 467.304 172.943C467.304 174.724 468.647 176.167 470.304 176.167Z" fill="#3B4C68"/>
<path opacity="0.1" d="M496.304 176.167C497.961 176.167 499.304 174.724 499.304 172.943C499.304 171.163 497.961 169.719 496.304 169.719C494.647 169.719 493.304 171.163 493.304 172.943C493.304 174.724 494.647 176.167 496.304 176.167Z" fill="#3B4C68"/>
<path opacity="0.1" d="M522.304 176.167C523.961 176.167 525.304 174.724 525.304 172.943C525.304 171.163 523.961 169.719 522.304 169.719C520.647 169.719 519.304 171.163 519.304 172.943C519.304 174.724 520.647 176.167 522.304 176.167Z" fill="#3B4C68"/>
<path opacity="0.1" d="M548.304 176.167C549.961 176.167 551.304 174.724 551.304 172.943C551.304 171.163 549.961 169.719 548.304 169.719C546.647 169.719 545.304 171.163 545.304 172.943C545.304 174.724 546.647 176.167 548.304 176.167Z" fill="#3B4C68"/>
<path opacity="0.1" d="M574.304 176.167C575.961 176.167 577.304 174.724 577.304 172.943C577.304 171.163 575.961 169.719 574.304 169.719C572.647 169.719 571.304 171.163 571.304 172.943C571.304 174.724 572.647 176.167 574.304 176.167Z" fill="#3B4C68"/>
<path opacity="0.1" d="M600.304 176.167C601.961 176.167 603.304 174.724 603.304 172.943C603.304 171.163 601.961 169.719 600.304 169.719C598.647 169.719 597.304 171.163 597.304 172.943C597.304 174.724 598.647 176.167 600.304 176.167Z" fill="#3B4C68"/>
<path opacity="0.1" d="M626.304 176.167C627.961 176.167 629.304 174.724 629.304 172.943C629.304 171.163 627.961 169.719 626.304 169.719C624.647 169.719 623.304 171.163 623.304 172.943C623.304 174.724 624.647 176.167 626.304 176.167Z" fill="#3B4C68"/>
<path opacity="0.1" d="M652.304 176.167C653.961 176.167 655.304 174.724 655.304 172.943C655.304 171.163 653.961 169.719 652.304 169.719C650.647 169.719 649.304 171.163 649.304 172.943C649.304 174.724 650.647 176.167 652.304 176.167Z" fill="#3B4C68"/>
<path opacity="0.1" d="M678.304 176.167C679.961 176.167 681.304 174.724 681.304 172.943C681.304 171.163 679.961 169.719 678.304 169.719C676.647 169.719 675.304 171.163 675.304 172.943C675.304 174.724 676.647 176.167 678.304 176.167Z" fill="#3B4C68"/>
<path opacity="0.1" d="M704.304 176.167C705.961 176.167 707.304 174.724 707.304 172.943C707.304 171.163 705.961 169.719 704.304 169.719C702.647 169.719 701.304 171.163 701.304 172.943C701.304 174.724 702.647 176.167 704.304 176.167Z" fill="#3B4C68"/>
<path opacity="0.1" d="M730.304 176.167C731.961 176.167 733.304 174.724 733.304 172.943C733.304 171.163 731.961 169.719 730.304 169.719C728.647 169.719 727.304 171.163 727.304 172.943C727.304 174.724 728.647 176.167 730.304 176.167Z" fill="#3B4C68"/>
<path opacity="0.1" d="M756.304 176.167C757.961 176.167 759.304 174.724 759.304 172.943C759.304 171.163 757.961 169.719 756.304 169.719C754.647 169.719 753.304 171.163 753.304 172.943C753.304 174.724 754.647 176.167 756.304 176.167Z" fill="#3B4C68"/>
<path opacity="0.1" d="M444.304 204.11C445.961 204.11 447.304 202.666 447.304 200.885C447.304 199.105 445.961 197.661 444.304 197.661C442.647 197.661 441.304 199.105 441.304 200.885C441.304 202.666 442.647 204.11 444.304 204.11Z" fill="#3B4C68"/>
<path opacity="0.1" d="M470.304 204.11C471.961 204.11 473.304 202.666 473.304 200.885C473.304 199.105 471.961 197.661 470.304 197.661C468.647 197.661 467.304 199.105 467.304 200.885C467.304 202.666 468.647 204.11 470.304 204.11Z" fill="#3B4C68"/>
<path opacity="0.1" d="M496.304 204.11C497.961 204.11 499.304 202.666 499.304 200.885C499.304 199.105 497.961 197.661 496.304 197.661C494.647 197.661 493.304 199.105 493.304 200.885C493.304 202.666 494.647 204.11 496.304 204.11Z" fill="#3B4C68"/>
<path opacity="0.1" d="M522.304 204.11C523.961 204.11 525.304 202.666 525.304 200.885C525.304 199.105 523.961 197.661 522.304 197.661C520.647 197.661 519.304 199.105 519.304 200.885C519.304 202.666 520.647 204.11 522.304 204.11Z" fill="#3B4C68"/>
<path opacity="0.1" d="M548.304 204.11C549.961 204.11 551.304 202.666 551.304 200.885C551.304 199.105 549.961 197.661 548.304 197.661C546.647 197.661 545.304 199.105 545.304 200.885C545.304 202.666 546.647 204.11 548.304 204.11Z" fill="#3B4C68"/>
<path opacity="0.1" d="M574.304 204.11C575.961 204.11 577.304 202.666 577.304 200.885C577.304 199.105 575.961 197.661 574.304 197.661C572.647 197.661 571.304 199.105 571.304 200.885C571.304 202.666 572.647 204.11 574.304 204.11Z" fill="#3B4C68"/>
<path opacity="0.1" d="M600.304 204.11C601.961 204.11 603.304 202.666 603.304 200.885C603.304 199.105 601.961 197.661 600.304 197.661C598.647 197.661 597.304 199.105 597.304 200.885C597.304 202.666 598.647 204.11 600.304 204.11Z" fill="#3B4C68"/>
<path opacity="0.1" d="M626.304 204.11C627.961 204.11 629.304 202.666 629.304 200.885C629.304 199.105 627.961 197.661 626.304 197.661C624.647 197.661 623.304 199.105 623.304 200.885C623.304 202.666 624.647 204.11 626.304 204.11Z" fill="#3B4C68"/>
<path opacity="0.1" d="M652.304 204.11C653.961 204.11 655.304 202.666 655.304 200.885C655.304 199.105 653.961 197.661 652.304 197.661C650.647 197.661 649.304 199.105 649.304 200.885C649.304 202.666 650.647 204.11 652.304 204.11Z" fill="#3B4C68"/>
<path opacity="0.1" d="M678.304 204.11C679.961 204.11 681.304 202.666 681.304 200.885C681.304 199.105 679.961 197.661 678.304 197.661C676.647 197.661 675.304 199.105 675.304 200.885C675.304 202.666 676.647 204.11 678.304 204.11Z" fill="#3B4C68"/>
<path opacity="0.1" d="M704.304 204.11C705.961 204.11 707.304 202.666 707.304 200.885C707.304 199.105 705.961 197.661 704.304 197.661C702.647 197.661 701.304 199.105 701.304 200.885C701.304 202.666 702.647 204.11 704.304 204.11Z" fill="#3B4C68"/>
<path opacity="0.1" d="M730.304 204.11C731.961 204.11 733.304 202.666 733.304 200.885C733.304 199.105 731.961 197.661 730.304 197.661C728.647 197.661 727.304 199.105 727.304 200.885C727.304 202.666 728.647 204.11 730.304 204.11Z" fill="#3B4C68"/>
<path opacity="0.1" d="M756.304 204.11C757.961 204.11 759.304 202.666 759.304 200.885C759.304 199.105 757.961 197.661 756.304 197.661C754.647 197.661 753.304 199.105 753.304 200.885C753.304 202.666 754.647 204.11 756.304 204.11Z" fill="#3B4C68"/>
<circle cx="39.8042" cy="39.8042" r="32.5" transform="rotate(-15 39.8042 39.8042)" fill="#8CBE6D"/>
<circle cx="99.3042" cy="348.304" r="15" fill="#52A742"/>
<circle cx="634.304" cy="402.304" r="37" fill="#145855"/>
<defs>
<filter id="filter0_f" x="130.304" y="373.304" width="453" height="132" filterUnits="userSpaceOnUse" color-interpolation-filters="sRGB">
<feFlood flood-opacity="0" result="BackgroundImageFix"/>
<feBlend mode="normal" in="SourceGraphic" in2="BackgroundImageFix" result="shape"/>
<feGaussianBlur stdDeviation="22" result="effect1_foregroundBlur"/>
</filter>
</defs>
</svg>
